<svg xmlns="http://www.w3.org/2000/svg" width="25" height="24"><g fill="none" fill-rule="evenodd"><path fill="#FFF" d="M-1721-116H199V964h-1920z"/><path fill="#44629D" fill-rule="nonzero" d="M21.526 0H4.003A3.232 3.232 0 0 0 .771 3.232v17.523a3.232 3.232 0 0 0 3.232 3.232h8.642l.015-8.571h-2.227a.525.525 0 0 1-.525-.524l-.01-2.763a.525.525 0 0 1 .525-.527h2.223v-2.67c0-3.098 1.892-4.785 4.656-4.785h2.268c.29 0 .525.235.525.525v2.33c0 .29-.235.525-.525.525l-1.392.001c-1.503 0-1.794.714-1.794 1.762v2.312h3.303c.314 0 .559.275.522.587l-.328 2.763a.525.525 0 0 1-.522.464H16.4l-.015 8.572h5.142a3.232 3.232 0 0 0 3.232-3.233V3.232A3.232 3.232 0 0 0 21.526 0z"/></g></svg>