<svg xmlns="http://www.w3.org/2000/svg" width="212" height="129" viewBox="0 0 212 129">
  <g fill="none" fill-rule="evenodd">
    <path fill="#FFF" fill-rule="nonzero" d="M129.104347,48.9652318 C129.104347,55.5814905 81.3532611,55.5814905 81.3532611,48.9652318 L81.3532611,12.4035624 C81.3532611,5.78730362 91.5670159,1 105.228804,1 C118.890593,1 129.104347,5.78730362 129.104347,12.4035624 L129.104347,48.9652318 Z"/>
    <path fill="#000" fill-rule="nonzero" d="M130.104347,28.1908607 L130.104347,31.1894276 C135.792932,32.0205215 139.513496,35.5363917 138.548339,41.7370383 L134.212235,41.0528246 C134.968027,37.7798053 132.907962,35.5490342 130.104347,34.3605113 L130.104347,67.9652318 C130.104347,74.5814905 118.890593,79.3687941 105.228804,79.3687941 C91.5670159,79.3687941 80.3532611,74.5814905 80.3532611,67.9652318 L80.3532611,11.4035624 C80.3532611,4.78730362 91.5670159,0 105.228804,0 C118.890593,0 130.104347,4.78730362 130.104347,11.4035624 L130.104347,24.0781044 C135.578002,23.0615119 135.750302,29.6492622 139.689419,29.6492622 C142.580155,29.6492622 144.405883,27.900716 145.166603,24.4036235 L149.046275,29.6492622 C147.220547,32.8422596 144.710171,34.4387584 141.515147,34.4387584 C137.39933,34.4387584 133.788464,28.2149872 130.104347,28.1908607 Z M105.228804,20.0702698 C117.5313,20.0702698 127.365756,15.8718075 127.365756,11.4035624 C127.365756,6.93531721 117.5313,2.73685497 105.228804,2.73685497 C92.9263089,2.73685497 83.091853,6.93531721 83.091853,11.4035624 C83.091853,15.8718075 92.9263089,20.0702698 105.228804,20.0702698 Z M105.137239,41.4703731 C113.261728,41.4703731 121.856342,48.726688 126.245849,36.1772956 C131.506684,21.1346284 112.579819,31.4224663 105.251347,31.4347821 C97.740302,31.4475541 78.6660094,20.7254686 84.0290852,36.1772956 C88.4099194,48.7983023 96.9264838,41.4703731 105.137239,41.4703731 Z M94.0356988,34.4609117 C93.0560501,34.014118 92.0861381,33.603903 91.1708284,33.3068724 C91.043068,34.9185203 91.7420047,36.417611 93.3012699,37.878495 C94.6623459,39.1536944 95.9449023,39.3025505 97.3203636,38.2005921 C97.7735332,37.7037641 98.1661921,37.1431041 98.4983401,36.518612 C97.9388353,36.285414 97.3562858,36.0205483 96.7614046,35.7423067 C96.7768075,35.8376838 96.7848125,35.9355362 96.7848125,36.0352571 C96.7848125,37.0429393 95.9674063,37.8598271 94.9590846,37.8598271 C93.9507629,37.8598271 93.1333567,37.0429393 93.1333567,36.0352571 C93.1333567,35.3642583 93.4957952,34.7778578 94.0356988,34.4609117 Z M89.3785422,32.8800872 C87.7252044,32.666837 86.4195936,33.1285758 85.8304449,34.8949009 C87.1997408,21.8948398 102.261996,41.0528246 103.859508,34.6668296 C103.859508,37.2534308 102.537405,37.7083028 100.602566,37.2426572 C98.5880061,40.6519353 95.2614776,41.9219911 90.6229807,41.0528246 C91.8094413,40.9649943 92.8816754,40.7566682 93.839683,40.4278461 C93.2401077,40.167757 92.6429621,39.7627193 92.0525795,39.2095867 C90.0039986,37.2902602 89.0997449,35.151891 89.3785422,32.8800872 Z M113.709885,35.6675584 C113.109497,35.9758727 112.520895,36.2646527 111.952931,36.5066755 C112.286419,37.1359618 112.68119,37.7006007 113.137245,38.2005921 C114.512706,39.3025505 115.795263,39.1536944 117.156339,37.878495 C118.788842,36.3489934 119.478301,34.7776116 119.263309,33.0790228 C118.278091,33.3719818 117.250736,33.8410837 116.222411,34.3597258 C116.870642,34.6398072 117.324252,35.2845926 117.324252,36.0352571 C117.324252,37.0429393 116.506846,37.8598271 115.498524,37.8598271 C114.490202,37.8598271 113.672796,37.0429393 113.672796,36.0352571 C113.672796,35.9093024 113.685567,35.7863286 113.709885,35.6675584 Z M109.807566,37.1614967 C108.683603,37.3162563 107.725703,37.0458034 107.036257,36.0352571 C111.600577,37.4036846 123.239593,22.122911 124.627164,34.8949009 C123.693821,33.2956115 122.457808,32.7349266 121.064189,32.7667364 C121.387597,35.0807709 120.487648,37.2583699 118.405029,39.2095867 C117.814646,39.7627193 117.217501,40.167757 116.617925,40.4278461 C117.575933,40.7566682 118.648167,40.9649943 119.834628,41.0528246 C115.159505,41.9288542 111.817151,40.6317449 109.807566,37.1614967 Z M106.123393,32.6141884 C105.438745,34.4387584 106.808041,35.3510434 107.949121,35.1229721 C106.808041,34.8949009 106.123393,33.8858014 106.123393,32.6141884 Z M119.890002,118.621086 L117.121221,118.342582 L116.852289,118.481834 C115.723774,118.203878 114.894751,117.794893 114.365221,117.255428 C113.168361,116.285048 112.570487,115.560279 112.570487,115.079475 C112.570487,114.995594 112.476583,114.628824 112.288219,113.979163 L112.288219,113.853068 L112.429353,113.574564 C112.309889,113.574564 112.036512,113.212179 111.609221,112.486862 L111.609221,112.081715 C111.609221,111.989062 111.929272,111.714944 112.570487,111.259359 L112.429353,110.576804 C114.044614,109.39645 115.151459,108.805998 115.749333,108.805998 L115.749333,108.94525 C115.749333,109.307635 115.424836,110.032953 114.775287,111.120655 L114.775287,111.259359 C114.971986,111.259359 115.480401,111.394774 116.300533,111.664506 L118.647023,111.398611 L118.647023,111.537863 C119.262122,111.445211 119.860552,111.305959 120.441757,111.120655 L121.403024,111.259359 C122.736016,111.049384 124.394062,110.230866 126.37716,108.805998 C126.94114,108.34219 127.49234,107.616872 128.03076,106.630594 C128.491945,106.14979 128.722538,105.694205 128.722538,105.264387 C123.603379,104.176685 120.842933,103.493581 120.441757,103.215625 C120.441757,103.400381 120.347298,103.493581 120.159489,103.493581 C116.920633,102.726049 115.035885,102.00128 114.505799,101.318177 C114.112958,101.318177 113.420624,100.86314 112.429353,99.9519699 C112.18987,99.926751 111.6859,99.3362997 110.916331,98.1811643 C110.694629,98.1811643 110.464036,97.8653797 110.224553,97.2321659 C109.856716,97.2321659 109.673353,96.7771292 109.673353,95.8665075 C109.673353,94.3489873 110.130093,93.0288325 111.044685,91.9076878 C111.60033,90.9800707 112.245434,90.2087012 112.980553,89.593031 C113.416179,89.1632131 113.694002,88.7114658 113.814021,88.2394337 C115.223693,87.2361599 116.053271,86.734523 116.300533,86.734523 C118.377535,86.945046 119.894447,87.3074307 120.851823,87.8216771 C122.971054,88.9351465 124.031225,89.9806346 124.031225,90.9586894 L124.031225,92.04694 L123.748958,92.04694 L123.748958,92.1856439 L123.890092,92.4641484 L123.197758,92.5907911 C122.898265,92.5907911 122.210376,92.2284064 121.133536,91.5025406 C119.543835,92.1434297 118.578679,92.5990147 118.236401,92.8692955 C118.159722,93.2991134 117.561292,93.8429645 116.441667,94.5003008 C116.441667,94.6521624 115.980482,95.1077474 115.057555,95.8665075 C114.50191,96.6927007 114.224087,97.1904999 114.224087,97.3593569 C116.069941,98.1767784 119.108209,98.994748 123.338336,99.813266 C127.167843,100.723888 129.513221,101.634509 130.376694,102.545131 C133.145474,103.902566 134.530142,104.944216 134.530142,105.668986 L134.247874,105.668986 C134.247874,105.432696 133.743904,104.982045 132.735408,104.315389 L132.45314,104.315389 L132.45314,104.442031 C132.872097,105.555501 133.517201,106.284656 134.389008,106.630594 C134.389008,106.748465 134.619601,107.157449 135.081342,107.857 C134.892978,107.882767 134.799074,107.971033 134.799074,108.122895 L134.940208,109.349849 C134.940208,110.041725 134.389008,110.585027 133.286608,110.981951 C133.286608,111.276903 132.872097,111.731939 132.043074,112.34761 C132.043074,112.803194 131.30351,113.439698 129.825494,114.257667 C129.825494,114.4342 129.227064,114.978599 128.03076,115.889221 C127.757382,115.998868 127.620138,116.13812 127.620138,116.306429 L127.47956,116.306429 L127.210072,116.167725 C127.210072,116.825061 126.334375,117.462113 124.582426,118.077235 C124.582426,117.799279 124.487966,117.660026 124.300158,117.660026 C124.001221,118.072849 123.496695,118.346967 122.787691,118.481834 L121.954224,118.342582 L121.684736,118.342582 C121.479703,118.342582 121.29634,118.389182 121.133536,118.481834 L120.851823,118.342582 C120.689019,118.435782 120.505656,118.481834 120.300623,118.481834 L120.031135,118.342582 L119.890002,118.621086 Z M146.542081,117.116175 L146.259813,117.116175 C145.311327,117.116175 144.666222,116.981309 144.323945,116.711576 L143.772745,116.850829 C143.627722,116.850829 143.353788,116.669362 142.952613,116.306429 L142.670345,116.433072 C142.029686,116.289434 141.431256,115.745583 140.875611,114.80097 L140.593899,114.940223 L140.324411,114.940223 C138.392988,113.372265 137.427276,112.326777 137.427276,111.803758 C135.863135,108.616308 135.081342,104.982045 135.081342,100.900968 C135.012998,100.900968 134.871864,99.5851993 134.657941,96.954758 L134.799074,96.954758 C134.611266,96.4904012 134.517362,96.1746167 134.517362,96.0057597 C134.585707,95.4575226 134.679611,95.1834041 134.799074,95.1834041 L133.966162,91.2371939 C134.136745,91.2371939 134.277879,90.828209 134.389008,90.0102394 C134.75629,90.0102394 134.940208,89.9175873 134.940208,89.7322832 L134.940208,89.593031 L135.081342,89.593031 L135.491408,89.8715354 C135.688107,89.8715354 135.961484,89.5974169 136.312096,89.0491798 C136.414335,89.0491798 136.555469,89.0025797 136.734942,88.9099276 L136.734942,89.188432 L137.427276,89.0491798 C137.427276,89.3276842 137.470061,89.4663882 137.55563,89.4663882 C137.683429,89.3737361 137.914577,89.3276842 138.247409,89.3276842 C138.247409,89.537659 138.525231,89.6725253 139.080877,89.7322832 L139.080877,89.8715354 L138.940298,90.1368821 C139.128106,90.1368821 139.22201,90.2295342 139.22201,90.4148383 L139.350365,90.4148383 C139.444269,90.4148383 139.815995,90.3221862 140.465545,90.1368821 L140.875611,90.1368821 L140.875611,91.0979417 L140.593899,91.5025406 L141.016745,91.781045 L140.593899,93.8177456 C140.627793,94.0030498 140.721697,94.0957018 140.875611,94.0957018 C140.781707,95.1581852 140.735032,95.930103 140.735032,96.4103586 L140.735032,96.5496108 L140.875611,97.9026599 L140.735032,97.9026599 L140.875611,98.1811643 L140.875611,98.3204165 C140.875611,99.7792753 141.012299,102.410265 141.285677,106.212837 L141.145099,106.212837 C141.239003,106.423908 141.426811,107.153064 141.709079,108.401399 L141.567945,109.084503 C141.747418,109.379454 141.836877,109.649187 141.836877,109.893701 L141.709079,110.172205 C142.161929,110.172205 142.388633,110.627242 142.388633,111.537863 C142.541991,111.537863 142.730354,111.807596 142.952613,112.34761 C143.405463,112.34761 144.507864,111.259359 146.259813,109.084503 C147.276644,107.389354 148.289585,104.47986 149.298081,100.357117 L149.298081,98.446511 L149.156947,97.4980609 L149.298081,97.4980609 L149.156947,97.2321659 C149.156947,97.0221912 149.204177,96.8363388 149.298081,96.6762536 C149.024704,93.1176469 148.888015,90.9844566 148.888015,90.2761343 C149.220846,89.8375447 149.635913,89.4746118 150.131549,89.188432 L150.131549,88.7832848 L150.400481,88.7832848 L150.400481,89.0491798 L150.810547,89.0491798 C151.281179,88.4165143 151.695135,88.1001815 152.054081,88.1001815 L152.195215,88.3660765 L152.477483,88.2394337 L152.746415,88.2394337 L152.746415,88.6440326 L152.887549,88.6440326 L153.579883,88.5053287 L154.412796,89.0491798 L154.412796,89.4663882 L154.963996,89.4663882 L154.963996,89.188432 C155.144025,89.2810841 155.280713,89.3276842 155.374617,89.3276842 C155.554091,89.2344839 155.69078,89.188432 155.784684,89.188432 C156.434233,89.7783351 156.75873,90.5036527 156.75873,91.3632884 C156.664826,91.3632884 156.617596,91.4098885 156.617596,91.5025406 C156.797625,91.5365313 156.887084,91.6291833 156.887084,91.781045 C156.613706,91.9921163 156.477018,92.3079008 156.477018,92.7300433 L156.335884,92.7300433 L156.066951,91.9076878 C155.878588,91.9411302 155.784684,92.0337823 155.784684,92.1856439 L155.784684,94.0957018 C155.784684,94.9558857 155.737454,96.0013738 155.64355,97.2321659 L155.784684,97.9026599 C155.212369,101.579137 154.661169,104.033595 154.131083,105.264387 C154.036624,105.264387 153.989949,105.310987 153.989949,105.403639 L153.989949,106.630594 L154.131083,107.984191 C153.763246,107.984191 153.579883,108.350961 153.579883,109.084503 L153.438749,109.084503 C153.438749,109.379454 153.622668,110.378342 153.989949,112.081715 L153.848816,112.081715 L153.989949,112.34761 L153.989949,113.030713 C153.989949,113.233012 153.943275,113.414479 153.848816,113.574564 C153.943275,113.751645 153.989949,113.886511 153.989949,113.979163 C153.784916,113.979163 153.554324,113.527964 153.297616,112.626114 L153.169261,112.626114 C153.169261,112.709994 153.122587,112.752208 153.028683,112.752208 C153.208157,113.713816 153.438749,114.67049 153.721017,115.623326 C153.626557,115.800955 153.579883,115.935821 153.579883,116.028473 C153.434304,116.028473 153.113697,115.075089 152.618061,113.169965 L152.477483,113.169965 L152.336349,113.435312 L152.336349,113.574564 L152.618061,113.574564 L152.618061,114.396371 L152.887549,114.396371 C152.887549,114.489572 152.840319,114.535624 152.746415,114.535624 L152.887549,114.80097 L152.887549,115.206117 L152.618061,115.079475 C152.618061,115.163903 152.571387,115.206117 152.477483,115.206117 C152.195215,114.666104 151.870719,113.667216 151.502881,112.208357 L151.233949,112.208357 C151.105595,112.208357 150.922232,112.617342 150.682749,113.435312 C150.503276,113.435312 150.041534,113.936949 149.298081,114.940223 L149.439215,115.206117 C149.191397,115.509293 148.546293,115.783411 147.503347,116.028473 C146.862132,116.551491 146.542081,116.913876 146.542081,117.116175 Z M154.682283,119.304189 L154.272217,119.304189 C154.177758,118.638081 154.083854,118.229097 153.989949,118.077235 C154.083854,117.925921 154.131083,117.698403 154.131083,117.39468 L154.412796,117.39468 L154.412796,117.937983 L154.272217,118.203878 C154.451691,118.29653 154.588379,118.342582 154.682283,118.342582 L154.682283,118.481834 L154.412796,118.886981 C154.592269,118.920423 154.682283,119.013624 154.682283,119.164937 L154.682283,119.304189 Z M187.038617,122.136382 L186.487417,121.871035 C186.307943,121.955464 186.166809,121.997678 186.064571,121.997678 L185.512815,121.871035 C185.333897,121.955464 185.197208,121.997678 185.102749,121.997678 C185.102749,121.761936 184.778252,121.58047 184.128703,121.453827 C183.923669,120.922037 183.555832,120.471386 183.025747,120.10023 C182.478992,119.122175 182.064481,117.760354 181.782768,116.014767 L181.923347,115.736263 C181.829443,115.559182 181.782768,115.424316 181.782768,115.331664 L181.923347,115.331664 C181.761098,115.036712 181.57718,113.763706 181.372147,111.511548 L181.51328,111.511548 C181.342697,110.963859 180.880956,106.69693 180.128613,98.7118577 C180.034708,98.7118577 179.89802,97.9827025 179.718546,96.5238437 C179.718546,96.4311916 179.765776,96.2957771 179.85968,96.1186965 C179.85968,95.1746323 179.304035,94.128596 178.1933,92.9822324 C178.1933,92.9224745 177.962707,92.2859713 177.500966,91.0716263 C177.603761,90.6670273 177.928257,90.3512428 178.475012,90.1237244 L178.616146,90.1237244 L178.616146,90.3890712 C179.265695,90.2119906 179.632977,90.1237244 179.718546,90.1237244 L179.85968,90.1237244 L179.85968,90.9455318 L180.128613,90.9455318 L179.988034,91.2108785 L179.988034,91.3501307 C180.175842,91.3501307 180.269746,91.3967308 180.269746,91.4893829 L181.372147,90.8062795 L181.51328,90.8062795 L181.51328,90.9455318 C181.419376,91.1138405 181.372147,91.2487068 181.372147,91.3501307 C181.466606,91.3501307 181.51328,91.3967308 181.51328,91.4893829 C181.692754,91.3967308 181.829443,91.3501307 181.923347,91.3501307 C182.72681,91.4011167 183.555832,92.1258861 184.410415,93.5260835 C184.410415,94.1247584 184.731022,95.0353801 185.372237,96.2579487 C186.02123,102.084612 186.346283,105.263839 186.346283,105.79508 L186.487417,105.79508 C188.581088,105.516576 190.145229,105.377324 191.179285,105.377324 L191.730485,105.377324 C192.559508,105.377324 192.974019,104.880073 192.974019,103.885022 L193.115153,103.885022 L192.974019,103.606518 L192.974019,103.480424 C193.435205,103.480424 193.896946,100.751848 194.358687,95.2963409 C194.170323,95.2963409 194.076419,95.2080748 194.076419,95.0309942 L194.076419,94.2086386 C194.572055,94.2086386 194.939892,94.0737723 195.178819,93.8040397 L195.461087,93.8040397 L195.589441,94.4871431 C195.503316,94.4871431 195.461087,94.5293573 195.461087,94.6132376 L195.730019,94.7524898 C195.730019,94.6598377 195.777249,94.6132376 195.871153,94.6132376 L195.730019,94.3478909 L195.730019,94.2086386 C196.336784,94.2086386 196.704621,93.9350684 196.83242,93.3868313 L197.114687,93.3868313 C197.114687,93.4877069 197.161917,93.6269591 197.255821,93.8040397 L197.524753,93.6653357 L197.665887,93.6653357 C197.665887,93.9685108 197.712562,94.1960292 197.807021,94.3478909 L198.075954,94.2086386 C198.264317,94.2344058 198.358221,94.3270578 198.358221,94.4871431 L198.358221,94.6132376 L198.075954,94.6132376 L198.075954,94.7524898 L198.499355,94.7524898 L198.627154,94.4871431 C198.54214,94.3095143 198.499355,94.1713585 198.499355,94.0699347 L198.768287,94.0699347 C199.323933,94.5501903 199.601755,94.9591752 199.601755,95.2963409 L200.011822,95.2963409 L200.293534,95.1570887 L200.152955,94.891742 C200.178515,94.7064379 200.26853,94.6132376 200.421888,94.6132376 C201.105887,94.6132376 201.477614,94.7524898 201.537623,95.0309942 L201.537623,95.2963409 C201.537623,95.4821933 201.396489,95.5748454 201.114222,95.5748454 C201.482059,96.5194578 201.665422,97.1093608 201.665422,97.345651 C201.212571,99.1504474 200.986423,101.418504 200.986423,104.150917 L201.255356,104.29017 C201.255356,104.196969 201.30203,104.150917 201.396489,104.150917 C201.396489,104.336222 201.443164,104.428325 201.537623,104.428325 L202.088268,104.150917 L202.088268,104.29017 C202.088268,104.559902 201.720986,104.740821 200.986423,104.833473 L200.986423,105.655828 L201.94769,105.655828 L203.742424,105.250681 C203.742424,105.335658 203.789653,105.377324 203.883002,105.377324 C203.883002,105.200791 204.250839,105.065925 204.985958,104.972725 L204.985958,105.111977 C204.985958,105.229848 204.387528,105.546181 203.191224,106.060427 C203.191224,106.422812 202.362201,106.831797 200.704155,107.287382 L200.704155,107.565338 L201.396489,107.426634 C201.490393,107.426634 201.537623,107.472686 201.537623,107.565338 C201.717097,107.472686 201.853785,107.426634 201.94769,107.426634 L202.229402,107.426634 L202.229402,107.565338 C201.118667,107.700204 200.563022,107.881671 200.563022,108.109189 C200.563022,108.37947 200.515792,108.514336 200.421888,108.514336 L200.563022,108.792292 C200.383548,109.559824 200.293534,110.011023 200.293534,110.14589 L200.421888,110.968245 C200.421888,111.80321 200.14851,113.8898 199.601755,117.229112 L199.319488,117.229112 L199.319488,116.963765 L199.191689,116.963765 L199.191689,118.734023 L198.768287,118.734023 L198.217087,118.329424 C198.217087,118.481286 197.986495,118.89027 197.524753,119.556378 C197.524753,120.52621 197.251376,121.070061 196.704621,121.18848 C196.704621,121.458213 196.24288,121.593079 195.319953,121.593079 L195.178819,121.593079 C195.178819,121.323346 195.042131,121.18848 194.768753,121.18848 L194.627619,121.18848 L194.627619,120.10023 C194.627619,119.889707 194.580945,119.70824 194.486485,119.556378 C194.486485,119.463726 194.533715,119.417126 194.627619,119.417126 C194.627619,119.231822 194.580945,119.138622 194.486485,119.138622 C194.700409,115.689663 194.884327,113.966005 195.038241,113.966005 L194.909887,113.687501 C195.08936,113.063059 195.178819,112.519756 195.178819,112.055947 L195.178819,110.968245 L195.319953,110.285142 C195.097695,110.108061 194.913777,110.019795 194.768753,110.019795 C193.409645,110.289528 192.486718,110.51266 191.999417,110.689741 L191.999417,111.511548 C191.76049,111.511548 191.439883,112.013185 191.038151,113.017007 L189.794617,115.736263 C189.615144,115.828915 189.478455,115.875515 189.384551,115.875515 L189.384551,116.963765 C189.384551,117.182512 189.153958,117.591497 188.692217,118.190172 C188.692217,118.729637 188.598313,118.999918 188.410505,118.999918 L188.551083,119.277874 C187.815964,120.053629 187.448683,120.509214 187.448683,120.644629 L187.448683,121.327184 L187.589817,121.593079 C187.281989,121.593079 187.098071,121.773997 187.038617,122.136382 Z M193.666353,104.154207 C194.101979,102.780325 194.422586,102.050621 194.627619,101.966193 C194.533715,101.603808 194.397026,101.287475 194.217553,101.017743 L194.486485,100.613144 L194.358687,100.613144 C194.204773,100.613144 194.016409,100.929477 193.794151,101.561594 L193.935285,102.244697 C193.892501,102.607082 193.755812,102.788548 193.525219,102.788548 L193.525219,102.927252 L193.666353,103.193696 L193.384085,103.193696 L193.384085,103.876251 C193.418535,104.062103 193.512439,104.154207 193.666353,104.154207 Z M197.114687,115.32344 C197.336945,115.32344 197.473634,114.867307 197.524753,113.956685 C197.439184,113.780153 197.396955,113.645287 197.396955,113.552086 L197.665887,113.552086 L197.665887,113.008783 C197.665887,112.822931 197.575873,112.730279 197.396955,112.730279 L197.524753,112.047176 L197.524753,110.693578 C197.524753,110.600926 197.571983,110.554326 197.665887,110.554326 L197.524753,110.27637 C197.524753,110.183718 197.571983,110.048303 197.665887,109.871771 L197.396955,108.644817 C197.481969,108.644817 197.524753,108.598216 197.524753,108.505564 L197.255821,108.505564 L197.255821,109.467172 C197.255821,109.669472 197.208591,109.85039 197.114687,110.010475 C197.114687,110.103675 197.161917,110.149727 197.255821,110.149727 L197.114687,110.820221 L197.114687,111.098177 L197.255821,112.047176 L197.114687,112.047176 L197.255821,112.32568 L197.255821,112.591027 C197.255821,112.776331 197.161917,112.869531 196.973553,112.869531 C197.161917,113.164483 197.255821,113.438601 197.255821,113.691339 L197.255821,114.361832 L197.114687,115.32344 Z M196.152865,116.550395 C196.332894,115.867291 196.422353,115.458307 196.422353,115.32344 C196.422353,115.230788 196.375123,115.184188 196.281219,115.184188 L196.422353,114.501085 L196.422353,113.008783 L196.281219,111.364072 L196.422353,111.364072 L196.281219,111.098177 L196.281219,110.149727 C196.281219,110.057075 196.328449,110.010475 196.422353,110.010475 C196.328449,109.892604 196.281219,109.571885 196.281219,109.049415 C196.101746,109.083406 196.012287,109.176058 196.012287,109.32792 L196.012287,110.27637 C196.012287,110.799388 195.965057,111.120107 195.871153,111.237429 C195.965057,111.727005 196.012287,112.135442 196.012287,112.464932 L196.012287,116.550395 L196.152865,116.550395 Z M189.935751,113.134878 C189.935751,112.839926 190.256358,112.207261 190.897017,111.237429 L191.589351,109.871771 L191.589351,109.593267 L191.448773,109.593267 C190.918687,110.175494 190.504176,110.90465 190.205239,111.781829 C190.145229,111.781829 189.961311,112.009347 189.654039,112.464932 L189.654039,113.134878 L189.935751,113.134878 Z M186.756349,115.32344 C187.303659,114.732441 188.316045,113.231916 189.794617,110.820221 C189.794617,110.735793 189.841847,110.693578 189.935751,110.693578 L189.935751,111.098177 L190.205239,111.098177 C190.205239,110.718797 190.299143,110.263761 190.486951,109.732519 L190.345817,109.732519 L190.345817,109.871771 C190.251913,109.871771 190.205239,109.825171 190.205239,109.732519 C188.692217,110.280208 187.820409,110.554326 187.589817,110.554326 C186.965827,110.284594 186.598546,110.149727 186.487417,110.149727 L186.487417,110.554326 C186.487417,110.756626 186.530201,110.938092 186.615215,111.098177 C186.615215,111.190829 186.572986,111.237429 186.487417,111.237429 C186.572986,111.6508 186.662445,113.012621 186.756349,115.32344 Z M208.553756,121.206024 L207.733623,121.206024 C207.733623,121.028943 207.455801,120.847477 206.900155,120.662173 C205.515488,119.211537 204.823709,115.442408 204.823709,109.354235 C204.73814,109.354235 204.695355,109.173317 204.695355,108.810384 C204.695355,108.717732 204.73814,108.671132 204.823709,108.671132 L204.695355,107.988577 L204.695355,106.761074 C204.695355,106.677194 204.73814,106.63498 204.823709,106.63498 C204.73814,106.457899 204.695355,106.318647 204.695355,106.217223 L204.823709,102.954116 L204.964287,102.954116 C204.964287,102.861464 204.917613,102.814864 204.823709,102.814864 C204.943173,101.584072 205.037077,100.858754 205.105421,100.639459 C205.105421,100.546259 205.058747,100.500207 204.964287,100.500207 C204.964287,100.407555 205.011517,100.27214 205.105421,100.095608 C205.199881,97.8023325 205.246555,95.9849267 205.246555,94.6439389 C205.246555,93.1598612 205.062637,91.2498033 204.695355,88.9143135 C205.097087,88.1889959 205.511598,87.826063 205.938889,87.826063 C206.468975,87.826063 206.789026,88.0541296 206.900155,88.5091663 C207.575264,88.6615762 208.173694,89.116613 208.69489,89.8759213 C208.69489,90.1198868 208.789349,90.3896194 208.977157,90.6851192 L209.24609,90.5584764 L209.387224,90.5584764 C209.566697,91.7980404 209.656711,92.4773061 209.656711,92.595177 L209.938424,92.595177 L209.938424,92.3292821 C210.331265,92.3292821 210.562413,92.9613994 210.630758,94.2267305 C210.759112,94.2267305 210.94303,94.8632337 211.181958,96.1362401 C211.275862,96.1362401 211.323092,96.1828402 211.323092,96.2754923 C211.323092,96.3681444 211.275862,96.4147445 211.181958,96.4147445 L211.592024,99.2732525 C211.49812,99.7628281 211.451446,100.171265 211.451446,100.500207 L211.451446,101.992508 C211.451446,102.203579 211.408105,102.389432 211.323092,102.549517 C211.408105,102.717826 211.451446,102.852692 211.451446,102.954116 C211.118058,106.309875 210.844681,107.988577 210.630758,107.988577 L210.771891,108.949636 L210.771891,111.402997 C210.771891,111.605297 210.724662,111.786763 210.630758,111.946848 C210.724662,112.107482 210.771891,112.2884 210.771891,112.491248 L210.771891,112.629952 C210.771891,112.80758 210.677432,112.895847 210.489624,112.895847 C210.489624,112.803194 210.442949,112.756594 210.34849,112.756594 L210.34849,112.895847 L210.630758,113.300445 L210.630758,113.57895 L210.079557,117.942917 L209.387224,119.030071 C209.079952,119.030071 208.802129,119.164937 208.553756,119.435218 C208.553756,119.52787 208.600986,119.573922 208.69489,119.573922 L208.553756,120.940677 L208.553756,121.206024 Z M164.003788,93.2453862 C165.282883,92.7760952 166.483633,92.3835575 167.606592,92.0683212 L167.729389,92.0683212 L167.729389,92.2985808 C167.327658,92.3210585 167.12707,92.4016493 167.12707,92.5414498 C166.405842,92.5853088 166.044673,92.743201 166.044673,93.0145784 L165.687949,93.0145784 C165.420128,93.0145784 165.141749,93.1319011 164.851702,93.3665465 L164.003788,93.3665465 L164.003788,93.2453862 Z M177.729892,111.242364 L177.852134,111.242364 C177.852134,111.073507 177.733226,110.835024 177.49541,110.526914 L177.49541,110.174946 L177.607094,109.932625 L176.89309,108.744596 C175.569543,107.423344 174.045409,106.238604 172.32013,105.189827 C170.647638,104.213965 169.806947,103.659697 169.799723,103.52812 C169.13795,103.249068 167.375443,102.185488 164.512759,100.336832 C162.944172,99.4634907 161.865665,98.5539655 161.278348,97.6071601 C161.315576,97.2919238 161.434484,97.1340315 161.635072,97.1340315 C161.635072,96.6060792 164.085468,95.7508295 166.168026,94.9070926 C167.372109,94.584181 167.974429,94.308966 167.974429,94.0814476 C170.049208,93.3994408 171.20884,92.9630441 171.454435,92.7722576 C172.659074,92.5080073 173.261393,92.3100938 173.261393,92.1779686 C173.439755,92.1779686 173.599781,92.4570213 173.740915,93.0145784 L173.618117,93.2453862 C173.618117,93.4071161 173.737025,93.4871587 173.974842,93.4871587 L173.974842,93.6083191 C173.737025,93.6083191 173.618117,93.72619 173.618117,93.9608355 C173.699797,94.3566626 173.941503,94.8703608 174.343234,95.5013816 L174.699959,95.5013816 L174.577161,95.2596091 L174.934441,95.2596091 C175.283942,94.2322128 175.56621,93.7185147 175.7818,93.7185147 L175.7818,93.4871587 C175.7818,93.0984586 175.900708,92.7026315 176.138524,92.2985808 C176.056844,92.1598768 176.016282,92.0014363 176.016282,91.8260004 C175.979054,91.5546231 175.339506,91.040925 174.097639,90.2854544 L172.056754,89.6911654 L171.933957,89.6911654 C171.383868,89.6911654 170.785438,89.8117775 170.138667,90.0540983 C167.88497,90.5233892 166.44307,90.9965178 165.810746,91.4740323 L165.565707,91.3528719 L165.331224,91.3528719 C164.922269,91.6681082 164.40163,91.8660218 163.769861,91.9471608 L159.564738,93.8396751 C157.832236,94.7201438 156.869303,95.6302173 156.675939,96.5687991 C156.675939,96.6861219 156.876526,97.19982 157.278258,98.1093452 L157.15546,98.351666 C157.15546,98.4180027 157.315486,98.7699709 157.635538,99.4081188 C157.635538,99.6208348 157.836126,99.8593179 158.237857,100.123568 C158.237857,100.351086 158.597915,100.824215 159.319143,101.542954 C160.219288,102.078581 160.899398,102.59228 161.360583,103.0835 C162.163491,103.222752 162.565222,103.421214 162.565222,103.677789 C164.141588,104.529201 165.022286,105.08292 165.208427,105.340044 C167.238199,106.447482 169.320201,107.749545 171.454435,109.246781 C172.81521,109.935915 173.495875,110.412881 173.495875,110.677131 C172.670187,111.329533 170.22757,111.84378 166.168026,112.217677 C166.168026,112.137086 166.126908,112.096517 166.044673,112.096517 C165.903539,112.177108 165.743513,112.217677 165.565707,112.217677 L160.881062,112.217677 C159.601966,112.217677 158.962419,112.690806 158.962419,113.637063 L158.962419,113.989579 C159.267468,113.989579 159.468056,114.268632 159.564738,114.825641 L160.278742,115.299318 C160.62102,115.533415 160.86217,115.651286 161.003859,115.651286 C161.457266,115.966522 161.776762,116.123866 161.962903,116.123866 C161.962903,116.527917 162.725248,116.80697 164.249383,116.961024 L164.249383,117.070672 L164.126585,117.312444 C164.78058,117.312444 165.182311,117.389746 165.331224,117.5438 L165.687949,117.5438 L166.413066,117.433605 L166.646992,117.5438 C167.799956,117.448407 168.799562,117.331632 169.647476,117.191832 C169.647476,117.272423 169.688594,117.312444 169.770274,117.312444 C171.354419,117.122206 172.956344,116.725831 174.577161,116.123866 C175.090577,116.007092 175.532871,115.493394 175.904597,114.583868 L176.740844,114.583868 L176.986439,113.758223 L176.986439,113.395291 C176.986439,113.211631 177.975487,111.763189 177.729892,111.242364 Z M50.7689573,105.29044 L50.8063516,105.263538 C50.8207401,105.339005 50.8661192,105.369751 50.9413821,105.355216 C50.8810611,105.042727 50.9967225,104.55303 51.2900266,103.886125 C51.3459204,103.732396 51.3475806,103.518294 51.2944538,103.244376 L51.2479679,103.004559 L51.123452,103.029156 C51.0177519,103.050398 50.8877019,103.669228 50.7327489,104.886203 L50.3597546,104.960552 L50.4549401,105.451367 L50.579456,105.42677 L50.6421282,105.381683 C50.6388494,105.649125 50.5449475,106.22589 50.3597546,107.111641 L50.3796772,107.878609 L50.4018133,107.993207 L50.5263292,107.968051 C50.7095059,106.29492 50.7958369,105.427329 50.783662,105.366396 L50.7689573,105.29044 Z M52.5765915,95.7550169 C52.5921156,95.4126782 52.6638045,95.2289418 52.7928455,95.2035078 L52.9168079,95.1783521 C52.956653,95.3840695 53.0800621,95.5735755 53.2859283,95.7463111 L53.3160683,95.9018689 C53.3721469,95.8691013 53.4209118,95.8485999 53.4623632,95.8402256 L53.4872664,95.9660039 C53.3638573,96.6228463 53.2703321,97.4485111 53.2050304,98.4418804 L53.3295463,98.4172837 C53.518257,98.3803888 53.6355786,97.6765891 53.682618,96.3070029 C54.1723804,96.2097344 54.4734321,95.3823925 54.5857731,93.8260953 L54.8348049,93.776343 C54.8685625,93.9518737 54.8104551,94.5170376 54.6593758,95.4723939 C54.8630285,95.4315858 55.0152146,95.5713395 55.1164875,95.891655 L55.1126136,96.5334039 C55.2426636,96.7603639 55.3494705,96.8660177 55.4324811,96.8492473 L55.5011032,99.1372948 C55.5503561,99.3882924 55.6953479,99.4900331 55.936632,99.4425168 L55.9587682,99.5565559 C56.0179824,102.479085 55.9172629,105.86392 55.6555029,109.712736 C55.3854418,111.142696 54.8591547,113.208256 54.0771949,115.909974 C53.4750915,117.564099 53.1325345,118.399267 53.0495239,118.416038 L52.3610895,118.801758 C52.3256716,118.61896 52.0982226,118.537344 51.6792959,118.557468 C51.7174807,118.75536 51.3378457,118.956605 50.5403906,119.162881 C50.1651828,118.722937 49.7279937,118.4261 49.2277166,118.272371 C49.2055804,118.158332 49.0578216,118.061063 48.7838867,117.980565 L48.6709923,118.003485 L48.7196918,118.254482 C48.0251699,117.743543 47.6671176,117.431613 47.6449815,117.317574 C46.0057991,114.969152 45.0771874,113.235648 44.8596996,112.115941 C44.5442594,110.897289 44.2000422,109.771433 43.827048,108.737815 L43.9045245,108.473401 L43.2249445,106.306659 L43.3494604,106.282063 L43.176245,106.055662 L42.7451433,103.839168 L42.3942853,102.639522 L41.8967752,102.738468 C41.9355134,102.936359 41.8525029,103.375745 41.6482968,104.057184 L41.8967752,104.007991 C41.8347939,104.977322 41.8259395,105.576027 41.8707652,105.804664 C41.9460281,105.789571 41.9919606,105.823671 42.0080094,105.908082 C41.7440357,105.96007 41.6942293,106.56716 41.8574835,107.728793 L42.1015346,108.321349 C42.0594759,108.788126 41.96097,109.147572 41.8065703,109.400247 C41.8226191,109.48354 41.8724254,109.51764 41.955436,109.50087 C42.0174172,110.706665 41.9991549,111.476987 41.9000956,111.813514 C42.0052423,111.951032 42.0661168,112.065071 42.0843791,112.15619 C41.8414348,112.679428 41.6986566,113.89808 41.6560445,115.812147 C41.5746941,116.683092 41.4922369,117.12639 41.4092263,117.142602 L41.0478536,117.214156 C40.8696575,118.190755 40.5918488,118.716788 40.2149807,118.791136 C40.0306972,118.487591 39.8785112,118.347838 39.7578691,118.371875 L39.5088374,118.421069 L38.920569,118.656973 C38.8491799,118.291377 38.4363406,118.120319 37.6814977,118.143238 L37.6859249,117.502048 C37.6056814,117.090614 37.4042423,116.917319 37.0799477,116.981606 L36.9349558,116.239234 C36.8569259,115.835066 36.6139816,115.67407 36.2072297,115.755127 C35.845857,113.896962 35.8995371,110.691012 36.3682702,106.137278 C36.3522215,106.052867 36.3024152,106.019885 36.2194046,106.036096 L36.217191,104.755393 L36.4905725,104.831978 L36.3461341,104.089048 C36.6244962,104.033705 36.7152545,103.632333 36.6167486,102.884371 L36.450174,102.02796 C36.6383313,101.990506 36.703633,101.680812 36.6455256,101.099437 L36.4346787,100.619243 C36.4623489,100.360978 36.5182427,100.22346 36.6006999,100.206131 C36.5846512,100.122838 36.5348448,100.088738 36.4518342,100.105508 C36.4031347,99.411212 36.4164164,98.8153023 36.4922327,98.3177791 C36.3782315,98.1746713 36.3123765,98.0572782 36.2941141,97.9661588 C36.4379991,97.858269 36.5508935,97.7962183 36.6339041,97.7800069 C36.5110484,97.5910599 36.3516681,97.1952774 36.15687,96.5932185 C36.2620167,96.5719759 36.3760179,96.2924686 36.4983202,95.7541373 C36.384319,95.6110295 36.3195707,95.4975495 36.3029686,95.4131383 L36.4274845,95.3885416 L36.254269,95.1621407 C36.3383864,92.9786289 36.2492884,90.5675982 35.986975,87.9307254 C36.2498418,87.7127097 36.5586412,87.5684839 36.9128197,87.498048 L37.2747458,87.4259351 C37.3577564,87.4097237 37.4075628,87.4432646 37.4236115,87.5271168 L37.6482935,87.3521451 C38.5525554,87.6948212 39.0677745,88.1895493 39.1933971,88.8368884 L39.4175257,88.6619168 L39.7794519,88.5898039 L39.804355,88.7161412 L39.7373932,88.9777601 L40.9476875,88.7379428 L42.4374508,89.2131054 L42.5973845,89.4311211 L42.2354584,89.502675 L42.2598081,89.6278943 C42.5929573,90.4557952 43.092681,91.2937584 43.7589793,92.1429018 C44.8087865,93.6343533 45.5171435,95.324814 45.8840503,97.2137249 L46.219413,98.9388445 C46.4684448,98.8890922 46.9609742,100.112217 47.696448,102.607659 L47.8165367,103.224811 C47.8331388,103.308104 47.7993811,103.358415 47.7163706,103.374627 L47.8879258,103.590407 C47.9615285,103.971096 47.9200232,104.620112 47.7611963,105.536896 C48.1889775,106.005909 48.4706601,106.586726 48.6051372,107.279904 L48.6543902,107.530902 L48.891247,107.483944 C49.0572682,107.450963 49.1574343,106.877413 49.1911919,105.763856 L49.3157078,105.739259 L49.1424924,105.512299 L49.0711033,105.146704 C49.4020388,104.471973 49.4833892,102.494738 49.3151544,99.2138798 C49.4562724,98.8141842 49.5547783,98.0315635 49.6101187,96.8660177 C49.9864333,95.1772341 50.3638548,94.078211 50.7423831,93.5683895 L50.8668989,93.5437929 L50.9155985,93.7953495 L50.8381219,94.0592045 L51.1109501,94.1357895 L51.2354659,94.1111929 L51.2111162,93.9854145 L50.9620844,94.0346078 L51.0401144,93.7707529 L51.0157646,93.6444155 C50.9991625,93.5611223 50.9499095,93.5270224 50.8668989,93.5437929 C50.9216859,93.3822376 50.9310938,93.2106201 50.8956759,93.0283812 L51.1330862,92.980865 L51.1397271,93.6198189 C51.4037007,93.5672715 51.6239555,92.9702437 51.8015981,91.8276175 L51.7766949,91.7018392 L52.0390084,91.7806602 L52.0146586,91.6548819 C51.931648,91.6716524 51.8818417,91.6375525 51.8652396,91.5542593 C51.9936293,91.5285446 52.1441551,91.4161826 52.3162637,91.2154963 C52.3312057,91.2915223 52.3765848,91.3222681 52.4518477,91.3071747 C52.8336964,90.2109467 53.2659048,89.615037 53.748473,89.5194455 L53.8729889,89.4948488 L53.9681744,89.9862228 L53.1115051,91.4374252 L52.8491917,91.3586041 L52.4761975,91.4329531 L52.5005472,91.5587314 L52.9869893,91.4620218 L53.0356888,91.7135785 C52.5608683,92.2899227 52.3334193,92.6320398 52.3544486,92.7382526 C52.0821739,93.9552277 51.7661803,96.6597413 51.4070211,100.851234 L51.4313709,100.977012 L51.5442653,100.954652 C51.8652396,100.108303 52.0307073,99.0076033 52.0417754,97.6525515 L52.441333,95.7820881 L52.5765915,95.7550169 Z M52.7308266,96.0022349 L52.7988319,96.3517241 L52.9233478,96.3271275 L52.8618173,96.0120193 C52.8175312,96.0054468 52.7738723,96.0021854 52.7308266,96.0022349 Z M64.7378902,117.008567 C64.6926347,117.614467 64.5471983,118.534101 64.301659,119.76755 L64.0852781,120.854274 C63.9596554,121.487079 63.8091295,121.785034 63.6337005,121.749816 L63.4997768,123.142881 L63.3387362,123.952334 C62.8462068,125.466146 62.2424431,126.382931 61.5279987,126.702128 C61.3381811,126.851385 60.9972843,126.964865 60.5108423,127.044804 C60.4903664,127.050953 60.4732108,127.058779 60.4521815,127.065488 C60.0708862,127.382449 60.3420541,127.296361 60.0299343,127.611086 C59.9247876,127.657484 59.6829501,127.681522 59.3110627,127.684876 C59.3110627,127.685994 59.3110627,127.687671 59.3110627,127.68823 C59.0852739,127.788853 58.7986107,127.813449 58.4505196,127.761461 C58.0338065,128.256189 57.7122788,128.554144 57.48649,128.654208 L56.1262232,128.639114 C54.8882587,128.785576 53.3470289,128.812968 51.5030871,128.721289 C50.0847129,128.026434 48.4045787,127.510463 46.462131,127.171141 C45.4958878,126.426534 44.6358981,126.052553 43.8810552,126.049758 C43.6995387,125.632733 42.4073406,124.737191 40.0050143,123.362574 C39.2036855,122.91089 38.7211173,122.720825 38.5573097,122.794056 C37.9524393,122.151748 37.5329591,121.882303 37.2988693,121.986279 L37.0780611,121.478694 C39.37026,122.385975 40.6021371,122.801323 40.7731389,122.724738 L40.7166917,122.595605 L39.566165,122.035473 L39.5146985,121.917521 L39.6436416,121.860501 C39.6674379,121.915843 40.3973777,122.203736 41.8340142,122.725856 C43.2695439,123.247417 44.4814984,123.509595 45.468771,123.51239 C46.268993,123.664442 46.7825518,123.689597 47.0083406,123.588975 L47.1367303,123.531955 C47.2772949,123.469905 47.322674,123.350834 47.2739745,123.175304 C43.8971039,122.317775 42.1029685,121.64528 41.889908,121.157819 L41.7011973,121.396519 C41.4444178,121.511117 41.187085,121.272976 40.9297522,120.682657 L40.6845943,120.791665 L40.7925081,121.039308 L40.663565,121.096887 C40.5130391,120.750857 40.3226682,120.4311 40.0930055,120.138736 L40.3503383,120.024696 L40.4067855,120.153829 C44.7963853,121.734723 47.8146501,122.568773 49.4604733,122.654302 C49.4604733,122.654302 54.0891435,123.681771 56.2380108,122.441317 C60.1118381,120.205258 59.1184781,105.047572 59.1184781,105.047572 L59.4206366,100.714649 C59.4638021,97.6629872 59.1765855,94.3944278 58.5589868,90.9100886 C58.2629157,90.130822 57.0703303,87.06798 57.1965064,86.4357343 C57.3957318,86.0030569 57.5744812,85.8018116 57.7327548,85.8342344 L58.1334192,85.9152916 C58.168837,85.7386429 58.2324785,85.6592628 58.3243435,85.6777103 L59.0000497,85.8157869 L59.0277199,85.6765922 L59.9386227,86.0058519 L59.9137195,86.1327483 C59.6464254,86.0779649 59.4947928,86.1433696 59.4577147,86.3295215 L59.76098,86.2462283 L59.8860493,86.271384 L59.8583791,86.4105787 L59.5147153,86.7621989 C59.4881519,86.8969215 59.5944055,87.0584768 59.8351362,87.2479828 L60.1101779,87.3038843 C60.1588774,87.0590358 60.3287724,86.9053067 60.6193095,86.841579 L60.6442127,86.7152417 L61.1826746,86.8242496 C61.1538976,86.9673574 61.6480873,87.5375525 62.6652437,88.5331578 C63.4676793,89.5209369 64.2120076,90.9475426 64.8998886,92.815211 C65.5628665,95.5896014 65.8312674,97.2973915 65.7034311,97.9380225 L65.5656335,97.9095127 C65.7277809,99.4512755 65.8351412,101.266396 65.888268,103.355994 C65.7615385,103.514754 65.6873824,103.643886 65.6674598,103.745627 C65.943055,103.800969 66.0149975,104.618249 65.8827339,106.196907 L65.692363,106.433929 L65.5235748,110.096035 C65.2136686,110.734989 65.0459873,111.121827 65.0188705,111.25655 L64.9928605,112.106811 L65.1179298,112.131967 L65.4211951,112.048674 L65.3658547,112.327063 L65.1754838,112.564644 C65.2667954,112.583092 65.3038735,112.638993 65.2856111,112.73179 C65.1937461,112.713342 65.1384057,112.749678 65.1201434,112.842475 L65.3898836,112.897847 C66.552245,111.23174 67.3924191,109.888748 67.9104058,108.868624 C67.9104058,108.670733 68.1871078,108.34874 68.7405117,107.901529 L70.7958537,103.322638 C70.7023285,103.271768 70.6552892,102.944744 70.6552892,102.342686 C71.3022183,100.958565 71.7150576,100.266505 71.8938071,100.266505 C72.5661928,98.7873515 73.6685734,95.6361852 75.2009488,90.8130057 L76.4389133,87.8983026 C76.345388,87.7171818 76.2989021,87.5796642 76.2989021,87.4851907 C76.6392455,87.4851907 77.1411828,87.0681656 77.8052675,86.2341156 L78.3669725,86.2341156 L78.4948088,86.7886582 L78.6353733,86.7886582 C78.8224239,86.7886582 78.9159491,86.6941847 78.9159491,86.5046787 L80.2823033,86.6466685 L80.5628791,86.6466685 C80.5628791,86.9222628 80.6525306,87.0597804 80.83128,87.0597804 L80.9718446,87.0597804 C80.9718446,86.7841861 81.0653699,86.6466685 81.2529738,86.6466685 L81.392985,86.6466685 C81.5717344,86.6723832 81.6613859,86.7668567 81.6613859,86.930648 L81.9419616,86.7886582 L82.0697979,86.7886582 L82.0697979,87.3432009 L82.3503737,87.3432009 C82.5296766,87.3432009 82.6187746,87.2487274 82.6187746,87.0597804 L82.6187746,86.930648 L82.4909383,86.6466685 L83.1804796,86.5046787 L83.4488804,86.5046787 L83.3083159,86.7886582 L83.3083159,87.2017702 C83.4953664,87.2017702 83.5888916,87.386245 83.5888916,87.7563128 L84.6873984,87.7563128 C84.6873984,87.8507863 84.640359,87.8983026 84.5468338,87.8983026 C84.5894459,88.3622849 84.7294571,88.594276 84.9679741,88.594276 L84.9679741,89.4193818 C85.0188873,90.408838 85.291162,91.1048114 85.7853517,91.5089791 C85.7853517,91.5520232 85.9253629,92.0165645 86.2064921,92.9020439 L86.474893,92.7600541 L86.6154575,92.7600541 L87.1638808,94.8490924 C87.4361555,94.8490924 87.5722929,95.1241277 87.5722929,95.6747572 C87.479321,95.6747572 87.4322817,95.7222735 87.4322817,95.816747 L87.7128575,95.9587367 L87.7128575,95.816747 C87.6193322,95.816747 87.5722929,95.7697897 87.5722929,95.6747572 L87.9939866,95.6747572 C88.0022877,96.1991131 88.2751158,97.218197 88.8113642,98.7320091 C88.7172855,99.2390355 88.6707996,99.6085442 88.6707996,99.8405354 L88.9513754,99.9825251 C88.9513754,99.8880516 88.9984147,99.8405354 89.09194,99.8405354 C89.09194,100.030041 89.3642147,100.631541 89.9093175,101.646153 C92.7438523,101.371118 94.4416955,101.2336 95.0034004,101.2336 L95.0034004,101.51758 L94.7222712,101.51758 L94.8628358,102.201255 L92.1179525,103.039218 L92.2457888,103.322638 C92.2457888,103.761465 91.8373767,104.0365 91.0199992,104.148303 L91.0199992,104.290293 L91.2878466,104.290293 L91.2878466,104.574273 L91.0199992,104.986825 L91.0199992,105.257389 C91.7521525,107.604692 92.3476151,109.689817 92.8074937,111.512764 C92.8074937,111.659226 92.8971452,111.843701 93.0753412,112.067307 L93.0753412,112.209296 C93.0753412,112.30377 93.0288553,112.350727 92.9347766,112.350727 L94.173848,115.962522 C94.0886238,115.962522 94.0460117,116.009479 94.0460117,116.103952 C94.4372682,116.103952 94.8462337,117.535589 95.2718013,120.398863 C94.9652155,120.398863 94.7394268,120.630854 94.5949883,121.094836 L93.7648825,121.094836 C93.7648825,121.378816 93.5352199,121.520806 93.0753412,121.520806 C92.7521534,121.202726 91.9264747,120.828745 90.5988588,120.398863 C90.5988588,120.25296 89.9131914,119.977366 88.5429633,119.573757 C88.5429633,119.470339 88.2662614,119.237789 87.7128575,118.877225 L87.7128575,118.593245 L88.6707996,118.735235 L89.09194,118.735235 C89.2706894,118.735235 89.3597875,118.645234 89.3597875,118.464113 C89.3597875,118.171748 88.4920502,115.901589 86.7554687,111.654754 C86.7554687,111.086795 86.2955901,109.651245 85.3763862,107.346986 C83.6149016,107.906001 81.6912697,108.323026 79.6054904,108.598061 C79.6054904,108.503028 79.5590045,108.456071 79.4654792,108.456071 C79.4654792,108.731106 79.1887772,108.915581 78.6353733,109.010614 C77.0775414,109.371737 76.2989021,109.883236 76.2989021,110.545109 C75.7200416,112.402716 75.171065,113.696276 74.6514187,114.427467 L74.6514187,114.852877 C74.9242468,114.852877 75.0603842,114.943438 75.0603842,115.123999 L75.0603842,115.265989 L74.7919833,115.123999 L74.5114075,115.123999 C74.2391328,115.846247 74.1029954,116.310229 74.1029954,116.516505 L73.8218662,116.375075 C73.8218662,116.61601 73.5451643,116.894958 72.9917604,117.213038 C72.9917604,117.385214 72.4898231,118.219264 71.485395,119.715188 L71.2042658,119.84432 L70.9364183,119.84432 L70.3874417,119.431767 L70.2468771,119.431767 C70.0681276,119.457482 69.9790296,119.551956 69.9790296,119.715188 C70.0637004,119.886805 70.1063125,120.024323 70.1063125,120.127741 L69.838465,120.269731 C69.7189298,120.175257 69.4892671,120.127741 69.1489237,120.127741 C69.1489237,120.402776 68.9657471,120.540294 68.5999471,120.540294 L66.3913121,119.019214 C65.8256127,119.019214 65.2747019,118.348844 64.7378902,117.008567 Z M65.2149051,113.147638 C65.2168696,113.144845 65.2188332,113.142052 65.220796,113.139261 C65.2156016,113.138528 65.2102743,113.137613 65.2048142,113.136516 C65.2084031,113.139554 65.2117667,113.143261 65.2149051,113.147638 Z M18.8317812,118.482001 C17.180424,118.387528 16.3547454,118.018019 16.3547454,117.373475 C16.1250828,117.373475 15.8954201,117.278442 15.6652041,117.089495 C15.6652041,117.183969 15.6187182,117.231485 15.5251929,117.231485 C15.5251929,117.119123 15.1588395,116.749614 14.4272396,116.121841 C14.4272396,115.726058 14.0608862,115.309592 13.3292863,114.870766 C12.4864521,114.372125 11.3414595,112.382032 9.89430828,108.89937 C9.59380996,108.472842 9.4150605,108.428679 9.3586133,108.766324 C9.4438375,109.471801 9.4864496,110.279577 9.4864496,111.191331 C9.4864496,111.328848 9.4438375,111.397607 9.3586133,111.397607 L9.4864496,111.681586 L9.4864496,112.51955 C9.4864496,112.700111 9.39679817,113.160181 9.21804871,113.899757 L9.4864496,113.770625 C9.57997486,114.724863 9.62646079,115.279406 9.62646079,115.434812 L9.4864496,115.434812 L9.62646079,115.705375 L9.62646079,116.685328 L9.76702538,117.38186 C9.57997486,117.38186 9.4864496,117.519378 9.4864496,117.794972 C9.4864496,117.872116 9.53293553,118.241625 9.62646079,118.904057 L8.12009538,119.4586 C7.56669148,119.4586 7.29054294,118.998531 7.29054294,118.078393 L7.00941376,118.078393 C6.92418956,118.439516 6.88157746,118.762068 6.88157746,119.046047 L6.74101287,119.046047 C6.74101287,118.460759 6.28168764,118.09125 5.36248376,117.936403 C5.36248376,117.317574 5.13282115,116.573525 4.67294251,115.705375 C4.49419305,115.799848 4.35805569,115.847365 4.26453043,115.847365 L4.26453043,115.988795 L4.54510621,115.988795 L4.54510621,116.130785 C4.54510621,116.216873 4.49862028,116.259918 4.40454162,116.259918 L4.54510621,116.543338 L4.54510621,116.827318 C3.80465179,116.1565 3.43442459,114.905984 3.43442459,113.074092 C3.6214751,111.165616 3.71555376,109.798266 3.71555376,108.972601 C3.71555376,108.001592 3.6214751,107.145741 3.43442459,106.406164 C3.43442459,106.320635 3.48091051,105.950567 3.57498917,105.297079 C3.57498917,105.17689 3.52794984,104.712349 3.43442459,103.904573 L3.57498917,103.20804 C3.48091051,103.052634 3.43442459,102.820643 3.43442459,102.511508 L3.57498917,102.511508 C3.39568631,102.021252 3.26010236,101.329192 3.16602369,100.435327 L3.30658828,100.435327 C2.17432391,94.5964177 1.16602201,91.6778015 0.28112918,91.6778015 L0,90.7101469 L0,90.5681572 C0.0254565793,90.3797692 0.118981838,90.2852957 0.28112918,90.2852957 L0.408412076,90.2852957 L0.689541256,90.4267264 C0.689541256,90.3322529 0.736027183,90.2852957 0.829552442,90.2852957 L0.689541256,90.0141735 C0.714997835,89.8246675 0.804095862,89.730194 0.957388742,89.730194 C1.1361382,89.8246675 1.27670279,89.8721838 1.37852911,89.8721838 C1.37852911,89.7346661 1.51466647,89.5971485 1.78749459,89.4596309 C2.34089848,89.8459101 2.61704703,90.2634941 2.61704703,90.7101469 C2.88102069,90.7101469 3.29386,90.4781558 3.85556495,90.0141735 L4.24184087,90.0007572 C4.24184087,90.370266 4.60764085,90.5552998 5.3397942,90.5552998 L5.3397942,90.8392794 L5.05921843,90.8392794 L5.05921843,90.9678528 C5.5528547,90.9678528 5.91865468,91.1098425 6.15717176,91.393822 L6.02933546,91.1098425 L6.02933546,90.9678528 L6.29773635,90.9678528 C6.29773635,91.1310851 6.5744383,91.5481101 7.12728879,92.2194869 C8.77034496,96.3030898 13.5074823,103.160524 15.8057687,111.672083 C16.0016737,111.672083 16.1848504,112.089108 16.3547454,112.923717 C17.2745026,111.917491 18.0996279,108.813841 18.8317812,103.611649 C18.8317812,103.525561 18.7852953,103.483076 18.69177,103.483076 C18.853364,101.255961 19.0830266,100.142403 19.3807579,100.142403 C19.3807579,100.245821 19.4277972,100.383339 19.5213225,100.555515 C19.334272,100.925024 19.2401933,101.436523 19.2401933,102.090011 C19.2401933,102.296287 19.2872326,102.481321 19.3807579,102.644554 C19.2872326,103.719539 19.1510953,104.55303 18.9723458,105.146704 C19.0658711,105.791248 19.2020084,106.113799 19.3807579,106.113799 L19.5213225,106.113799 C19.5213225,105.74429 19.6109739,105.559257 19.78917,105.559257 L19.78917,104.179049 C19.8915497,104.179049 20.0321143,104.132092 20.2108637,104.037059 C20.1173385,103.839727 20.0232598,103.422702 19.9297345,102.786543 C20.108484,102.691511 20.2446214,102.644554 20.3387,102.644554 L20.2108637,101.948021 C20.2960879,101.948021 20.3387,101.901064 20.3387,101.806031 L20.0702991,101.806031 L20.0702991,101.535468 C20.4360991,101.535468 20.6192758,100.468868 20.6192758,98.3367856 C20.7471121,97.709012 20.8832495,97.292546 21.0276879,97.0857105 C20.8494918,97.0857105 20.7598404,96.9481929 20.7598404,96.6725986 L20.7598404,95.138103 L20.6192758,95.138103 L20.6192758,95.0095296 C20.6192758,94.9150561 20.6663151,94.8675399 20.7598404,94.8675399 L20.6192758,94.5835604 C20.8323363,94.3772839 21.0149596,93.775784 21.1682525,92.7785016 L21.0276879,92.5073795 C21.2152918,92.1635854 21.3088171,91.7935176 21.3088171,91.3982941 L21.1682525,91.1143146 L21.4493816,91.1143146 L21.4493816,90.9723249 L21.1682525,90.9723249 L21.1682525,90.7017617 C21.6026745,89.7559087 22.2451764,89.01186 23.0963116,88.4701747 C23.9219903,88.6255808 24.3348296,88.8100557 24.3348296,89.0252764 L24.3348296,89.3086969 C23.313246,89.7218088 22.4875674,90.5083426 21.8577937,91.6688573 L21.9983583,91.9528368 L21.5766645,95.0095296 L21.8577937,95.0095296 L21.5766645,95.4220825 C21.5766645,95.628359 21.6237039,95.8133929 21.7172291,95.9766252 L21.4493816,96.6725986 L21.5766645,97.369131 L21.4493816,97.6402532 L21.5766645,98.4787754 L21.5766645,98.8913283 C21.3984685,99.7941371 21.3088171,100.305636 21.3088171,100.425824 C21.3088171,100.6321 21.3558564,100.817134 21.4493816,100.980367 C21.2623311,101.444908 21.1217665,101.676899 21.0276879,101.676899 L21.1682525,101.948021 C21.1682525,102.412562 21.0791544,102.644554 20.900405,102.644554 L21.0276879,102.928533 L20.7598404,103.341086 C20.8533656,103.848112 20.900405,104.217621 20.900405,104.449612 C20.8063263,104.449612 20.7598404,104.497129 20.7598404,104.591602 L21.0276879,104.591602 C21.0276879,103.663078 21.2579039,102.782071 21.7172291,101.948021 L21.5766645,101.122356 L21.5766645,100.980367 C21.951319,100.980367 22.1389229,100.610858 22.1389229,99.8712812 L22.2667592,99.8712812 L22.1389229,99.5878607 C22.35143,99.2865517 22.4875674,98.8700857 22.547335,98.3367856 C22.4538097,98.1824975 22.4067704,97.9499474 22.4067704,97.6402532 L22.547335,97.6402532 L22.4067704,97.369131 L22.6878996,96.9442798 L22.6878996,96.8145884 C22.6878996,96.5999267 22.6408602,96.4148928 22.547335,96.2606047 C22.7260844,95.6065574 22.8622218,95.2800928 22.9557471,95.2800928 C22.8622218,95.1593456 22.8151825,94.9273545 22.8151825,94.5835604 C22.9092611,94.5835604 22.9557471,94.5410752 22.9557471,94.454987 L22.8151825,93.8870279 C22.9430188,93.4660898 23.1261955,93.2380118 23.3641591,93.2033529 L23.2368762,92.9199324 C23.3221004,92.756141 23.3641591,92.5716662 23.3641591,92.3653897 L23.6452883,92.3653897 C23.5517631,93.6125517 23.5047237,94.5366031 23.5047237,95.138103 L23.5047237,96.118615 C23.232449,96.118615 23.0963116,96.2086163 23.0963116,96.3891781 C23.3685864,96.3891781 23.5047237,96.8537194 23.5047237,97.7822429 L23.6452883,97.7822429 C24.0110883,97.0683811 24.194265,96.651356 24.194265,96.5311679 C24.1007397,96.3506061 24.0542538,96.2130885 24.0542538,96.118615 L24.194265,94.7255501 C24.1007397,94.5449883 24.0542538,94.4074707 24.0542538,94.3129972 C24.3348296,94.3129972 24.4753942,94.1285223 24.4753942,93.7578955 L24.7432416,93.7578955 L24.7432416,93.8870279 C24.3774417,95.7960634 24.194265,98.9472297 24.194265,103.341086 L24.0542538,103.341086 C24.0542538,103.435559 24.1007397,103.483076 24.194265,103.483076 L24.0542538,104.179049 L24.0542538,104.449612 L24.6026771,104.179049 L24.6026771,104.308182 C24.4239276,106.191502 24.0110883,109.062602 23.3641591,112.923717 C23.3641591,114.032803 22.6790451,115.562826 21.3088171,117.515465 C21.3088171,118.082306 20.4831384,118.404857 18.8317812,118.482001 Z M30.9596276,115.239157 L30.1422501,115.239157 C30.1422501,115.058595 29.8655481,114.873561 29.3126976,114.684614 C27.9336151,113.205461 27.2440739,109.362234 27.2440739,103.154375 C27.1588497,103.154375 27.116791,102.9699 27.116791,102.599832 C27.116791,102.505359 27.1588497,102.457843 27.2440739,102.457843 L27.116791,101.761869 L27.116791,100.510235 C27.116791,100.424147 27.1588497,100.381662 27.2440739,100.381662 C27.1588497,100.2011 27.116791,100.05911 27.116791,99.9556924 L27.2440739,96.6284364 L27.3846384,96.6284364 C27.3846384,96.5339629 27.3381525,96.4864467 27.2440739,96.4864467 C27.3630557,95.2314585 27.4571344,94.4918819 27.525203,94.267717 C27.525203,94.1732435 27.4781637,94.1262863 27.3846384,94.1262863 C27.3846384,94.0312538 27.4316778,93.8937361 27.525203,93.7137334 C27.6187283,91.3753745 27.6652142,89.5222405 27.6652142,88.1548904 C27.6652142,86.6416374 27.4825909,84.6940299 27.116791,82.3126269 C27.5163486,81.5730503 27.9291879,81.2029825 28.3547555,81.2029825 C28.8827028,81.2029825 29.2020168,81.4355327 29.3126976,81.899515 C29.9850834,82.0549211 30.5805459,82.5189033 31.1001922,83.2931388 C31.1001922,83.5419004 31.1937175,83.8169357 31.380768,84.1182446 L31.6491689,83.9891122 L31.7897335,83.9891122 C31.9684829,85.2530446 32.0575809,85.9451049 32.0575809,86.0652931 L32.3387101,86.0652931 L32.3387101,85.79473 C32.7299667,85.79473 32.9596293,86.439274 33.027698,87.7294801 C33.1555343,87.7294801 33.338711,88.3784963 33.5766746,89.6765286 C33.6707533,89.6765286 33.7172392,89.7240449 33.7172392,89.8185184 C33.7172392,89.9129919 33.6707533,89.9605081 33.5766746,89.9605081 L33.9856401,92.8752112 C33.8921149,93.3744114 33.8450755,93.7908774 33.8450755,94.1262863 L33.8450755,95.6479245 C33.8450755,95.8631452 33.8024634,96.0526512 33.7172392,96.2158835 C33.8024634,96.3875011 33.8450755,96.5250187 33.8450755,96.6284364 C33.5130332,100.050166 33.2407585,101.761869 33.027698,101.761869 L33.1682626,102.741822 L33.1682626,105.243413 C33.1682626,105.44969 33.1217766,105.634724 33.027698,105.797956 C33.1217766,105.961747 33.1682626,106.146222 33.1682626,106.353058 L33.1682626,106.494488 C33.1682626,106.675609 33.0747373,106.76561 32.8876868,106.76561 C32.8876868,106.671137 32.8406475,106.623621 32.7471222,106.623621 L32.7471222,106.76561 L33.027698,107.178163 L33.027698,107.462143 L32.4792747,111.911342 L31.7897335,113.020427 C31.4831477,113.020427 31.2064458,113.157945 30.9596276,113.433539 C30.9596276,113.527453 31.0061135,113.57497 31.1001922,113.57497 L30.9596276,114.968593 L30.9596276,115.239157 Z M52.8932377,94.8496514 L52.7687218,94.874248 C52.7526731,94.7909548 52.6873714,94.6774748 52.5733702,94.533808 C52.822402,94.4846147 52.9225681,94.3336808 52.8733151,94.0826831 L52.9862095,94.0603225 L53.0598122,94.4370985 C52.9015387,94.4689623 52.8456449,94.60648 52.8932377,94.8496514 Z M19.3647092,99.9076171 L19.2241446,99.9076171 C19.0968617,99.9076171 18.9607243,99.7700995 18.8157325,99.4950642 L18.8157325,99.2245011 C18.8157325,99.1294686 18.8627718,99.0825113 18.9562971,99.0825113 L18.8157325,98.7985318 C19.002783,98.4977819 19.0968617,98.2227466 19.0968617,97.973426 L19.3647092,97.973426 L19.3647092,98.1019994 L19.2241446,98.7985318 C19.3182232,99.1596554 19.3647092,99.5297232 19.3647092,99.9076171 Z M75.26293,96.5445842 C75.458835,96.5015401 75.6414583,96.2695489 75.8119067,95.8480518 C75.7266825,95.6848195 75.6846238,95.4997856 75.6846238,95.2935091 C75.8971309,95.2935091 76.3099702,94.5064163 76.9225883,92.9333487 L76.7825771,92.6493692 L76.7825771,92.5073795 C77.2845144,91.9315942 77.5567892,91.1450604 77.5994013,90.1472191 L77.0504246,90.1472191 L77.0504246,90.4311986 L77.3315538,90.4311986 C75.9524713,93.3805606 75.26293,95.4181694 75.26293,96.5445842 Z M50.2219571,111.965007 C50.3885316,111.536243 50.4715422,111.096857 50.4704354,110.646291 C50.6281555,110.614986 50.8229537,110.105724 51.0537231,109.118504 L50.9120517,108.387871 L50.7875358,108.411909 L50.8583715,108.778064 L50.6209613,108.825021 L50.5722617,108.574023 L50.7388363,108.160911 L50.7139331,108.035692 C50.550679,108.241969 50.4051338,108.357685 50.276744,108.383399 C50.3907452,108.527066 50.4560469,108.640546 50.4720956,108.723839 L49.9308666,111.133193 L49.8063507,111.15779 L49.925886,111.774383 C49.9801196,111.929789 50.0786255,111.993517 50.2219571,111.965007 Z M79.1367573,104.206441 C79.604937,104.206441 81.1201568,103.836932 83.6818635,103.097355 L83.6818635,102.955925 C83.6818635,102.757474 83.0393616,100.767382 81.7538043,96.9839698 L81.7538043,96.8553964 C81.3199357,97.4311817 80.8606104,98.4497066 80.3752752,99.9120893 C80.1705158,101.192792 79.8047158,102.439395 79.2773219,103.651898 L79.1367573,103.651898 L79.1367573,104.206441 Z M91.4433531,111.234375 L91.4433531,111.092385 C91.4433531,110.980582 91.3968672,110.520513 91.3027885,109.712177 L91.4433531,109.016204 C91.3498279,109.016204 91.3027885,108.968688 91.3027885,108.874214 L91.0349411,109.016204 L90.7538119,109.016204 C90.7538119,108.362157 90.5711886,108.035692 90.2048352,108.035692 C90.7582391,110.167774 91.1710784,111.234375 91.4433531,111.234375 Z"/>
    <ellipse cx="105.229" cy="11.404" fill="#EE6344" rx="10.726" ry="4.561"/>
  </g>
</svg>
